<svg xmlns="http://www.w3.org/2000/svg" xmlns:xlink="http://www.w3.org/1999/xlink" width="1366" zoomAndPan="magnify" viewBox="0 0 1024.5 576" height="768" preserveAspectRatio="xMidYMid meet" version="1.2"><defs><clipPath id="1cbd9abf66"><path d="M 309 272 L 435.789062 272 L 435.789062 421 L 309 421 Z M 309 272 "/></clipPath></defs><g id="791823f883"><path style=" stroke:none;fill-rule:nonzero;fill:#0c4e5c;fill-opacity:1;" d="M 330.394531 180.625 C 331.460938 180.65625 332.523438 180.679688 333.589844 180.703125 C 337.148438 180.792969 340.535156 180.917969 343.949219 181.980469 C 345.257812 182.796875 345.257812 182.796875 346.21875 183.710938 L 347.210938 184.625 C 347.984375 185.507812 347.984375 185.507812 348.488281 187.019531 C 348.53125 187.941406 348.542969 188.859375 348.539062 189.78125 L 348.539062 191.523438 L 348.527344 193.441406 L 348.519531 195.46875 C 348.511719 197.3125 348.503906 199.152344 348.492188 200.996094 C 348.488281 202.140625 348.480469 203.285156 348.476562 204.425781 C 348.453125 209.8125 348.417969 215.195312 348.386719 220.582031 C 348.371094 222.886719 348.355469 225.191406 348.34375 227.496094 C 348.316406 231.835938 348.289062 236.171875 348.261719 240.511719 L 348.171875 255.363281 L 347.984375 285.839844 L 346.46875 285.839844 L 346.722656 287.101562 C 346.46875 288.867188 346.46875 288.867188 345.765625 289.839844 C 343.5 292.207031 340.988281 293.867188 338.203125 295.566406 C 335.636719 297.253906 333.746094 299.507812 331.753906 301.816406 C 330.183594 303.632812 328.53125 305.347656 326.839844 307.046875 L 326.109375 307.785156 C 324.761719 309.125 323.367188 310.410156 321.925781 311.644531 C 319.726562 313.5625 317.660156 315.59375 315.605469 317.664062 L 314.417969 318.855469 C 313.570312 319.703125 312.726562 320.550781 311.882812 321.398438 C 310.542969 322.746094 309.203125 324.089844 307.863281 325.433594 C 305.015625 328.285156 302.171875 331.136719 299.328125 333.992188 C 296.03125 337.300781 292.734375 340.609375 289.433594 343.914062 C 288.117188 345.234375 286.804688 346.554688 285.488281 347.875 L 283.050781 350.316406 L 281.957031 351.417969 C 279.96875 353.414062 277.90625 355.324219 275.765625 357.152344 C 274.386719 358.371094 273.164062 359.71875 271.945312 361.089844 C 271.074219 362.058594 270.203125 363.023438 269.328125 363.988281 L 268.609375 364.898438 C 267.816406 365.503906 267.816406 365.503906 266.34375 365.832031 L 264.636719 365.976562 L 262.9375 366.148438 C 261.261719 366.007812 261.261719 366.007812 259.8125 365.152344 C 258.242188 363.992188 256.914062 362.773438 255.546875 361.378906 L 254.808594 360.632812 C 254.039062 359.851562 253.269531 359.070312 252.503906 358.285156 C 249.300781 355.027344 246.109375 351.804688 242.609375 348.863281 C 239.660156 346.332031 236.878906 343.632812 234.257812 340.765625 C 230.355469 336.515625 226.167969 332.613281 221.9375 328.695312 C 219.058594 326.03125 216.203125 323.339844 213.367188 320.628906 L 211.980469 319.308594 C 210.523438 317.90625 209.074219 316.5 207.628906 315.082031 C 207.171875 314.644531 206.710938 314.203125 206.238281 313.75 C 202.179688 309.746094 202.179688 309.746094 201.453125 307.230469 C 200.972656 304.125 200.960938 300.984375 200.917969 297.847656 L 200.871094 295.453125 C 200.835938 293.351562 200.804688 291.25 200.777344 289.144531 C 200.761719 287.859375 200.738281 286.570312 200.710938 285.28125 C 200.667969 283.183594 200.640625 281.082031 200.617188 278.980469 C 200.609375 278.1875 200.59375 277.390625 200.578125 276.597656 C 200.476562 271.296875 200.917969 266.792969 203.371094 261.988281 C 205.578125 258.347656 208.789062 255.476562 211.820312 252.535156 C 212.628906 251.742188 213.4375 250.953125 214.242188 250.160156 C 214.972656 249.441406 215.703125 248.726562 216.4375 248.011719 C 217.503906 246.949219 218.496094 245.839844 219.472656 244.695312 C 221.976562 241.804688 224.714844 239.136719 227.421875 236.441406 L 229.152344 234.710938 C 230.660156 233.207031 232.171875 231.703125 233.679688 230.199219 C 235.214844 228.667969 236.75 227.136719 238.28125 225.605469 C 240.976562 222.914062 243.675781 220.222656 246.375 217.535156 L 247.648438 216.261719 L 249.011719 214.917969 C 250.195312 213.761719 250.195312 213.761719 251.183594 212.445312 C 252.230469 211.167969 253.296875 210.292969 254.613281 209.300781 C 257.019531 207.371094 259.113281 205.296875 261.199219 203.027344 C 264.308594 199.652344 267.480469 196.355469 270.714844 193.101562 L 272.015625 191.78125 C 280.949219 182.835938 280.949219 182.835938 286.4375 181.179688 C 287.597656 180.945312 288.679688 180.890625 289.863281 180.867188 L 291.292969 180.835938 L 292.835938 180.8125 L 294.453125 180.777344 C 295.585938 180.757812 296.71875 180.734375 297.847656 180.714844 C 299.546875 180.6875 301.246094 180.65625 302.941406 180.621094 C 312.09375 180.445312 321.242188 180.363281 330.394531 180.625 M 269.328125 238.449219 L 268.824219 239.457031 L 269.835938 239.457031 Z M 269.328125 238.449219 "/><path style=" stroke:none;fill-rule:nonzero;fill:#2191aa;fill-opacity:1;" d="M 330.394531 180.625 C 331.460938 180.65625 332.523438 180.679688 333.589844 180.703125 C 337.148438 180.792969 340.535156 180.917969 343.949219 181.980469 C 345.257812 182.796875 345.257812 182.796875 346.21875 183.710938 L 347.210938 184.625 C 347.984375 185.507812 347.984375 185.507812 348.488281 187.019531 C 348.527344 187.949219 348.542969 188.882812 348.535156 189.8125 L 348.53125 191.566406 L 348.519531 193.496094 L 348.511719 195.527344 C 348.507812 196.605469 348.503906 197.6875 348.5 198.765625 C 348.484375 202.515625 348.488281 206.261719 348.496094 210.011719 C 348.507812 218.226562 348.496094 226.441406 348.472656 234.65625 C 348.460938 239.359375 348.457031 244.058594 348.464844 248.761719 C 348.472656 252.910156 348.46875 257.058594 348.449219 261.207031 C 348.441406 263.386719 348.4375 265.570312 348.449219 267.753906 C 348.460938 269.796875 348.453125 271.839844 348.4375 273.882812 C 348.433594 274.625 348.433594 275.371094 348.441406 276.117188 C 348.476562 279.082031 348.472656 281.734375 347.238281 284.464844 C 345.636719 287.058594 343.863281 289.09375 341.492188 291 C 339.816406 292.394531 338.339844 293.984375 336.832031 295.558594 L 335.882812 296.429688 L 334.875 296.429688 L 334.875 295.421875 L 334.042969 295.085938 C 332.464844 294.1875 331.300781 292.96875 330.046875 291.679688 L 329.234375 290.863281 C 328.382812 290 327.53125 289.132812 326.679688 288.269531 C 325.839844 287.410156 324.996094 286.554688 324.148438 285.699219 C 323.625 285.167969 323.101562 284.636719 322.578125 284.101562 C 321.214844 282.722656 319.800781 281.398438 318.328125 280.132812 C 316 278.117188 313.835938 275.949219 311.671875 273.761719 L 310.40625 272.488281 C 309.085938 271.164062 307.769531 269.835938 306.449219 268.507812 C 304.703125 266.75 302.957031 264.992188 301.207031 263.234375 L 299.992188 262.007812 L 298.871094 260.878906 L 297.882812 259.882812 C 297.089844 259.074219 297.089844 259.074219 296.050781 258.613281 L 296.050781 257.605469 L 294.539062 257.101562 C 293.664062 256.285156 292.84375 255.449219 292.019531 254.582031 C 291.320312 253.867188 290.621094 253.15625 289.921875 252.445312 L 288.722656 251.222656 C 286.9375 249.402344 285.144531 247.585938 283.351562 245.773438 C 282.402344 244.816406 281.460938 243.855469 280.519531 242.890625 C 279.15625 241.503906 277.792969 240.117188 276.421875 238.738281 L 275.148438 237.425781 L 273.949219 236.226562 L 272.902344 235.164062 C 271.882812 234.308594 271.882812 234.308594 270.515625 234.261719 C 269.308594 234.320312 269.308594 234.320312 268.453125 235.0625 C 268.191406 235.359375 267.929688 235.652344 267.660156 235.957031 C 266.445312 237.269531 265.222656 238.464844 263.847656 239.613281 C 261.863281 241.316406 260.171875 243.207031 258.472656 245.191406 C 257.480469 246.246094 256.5 247.164062 255.402344 248.105469 C 252.761719 250.378906 250.34375 252.859375 247.902344 255.335938 C 242.851562 260.460938 242.851562 260.460938 240.671875 262.316406 C 237.617188 264.933594 234.84375 267.855469 232.019531 270.714844 C 225.59375 277.21875 225.59375 277.21875 222.445312 279.898438 C 220.15625 281.933594 218.039062 284.164062 215.886719 286.34375 C 213.050781 289.21875 210.21875 292.0625 207.148438 294.6875 C 205.714844 295.9375 204.421875 297.320312 203.113281 298.695312 C 202.835938 298.945312 202.558594 299.195312 202.273438 299.453125 L 201.265625 299.453125 C 200.875 292.78125 200.675781 286.101562 200.617188 279.417969 C 200.609375 278.605469 200.59375 277.789062 200.578125 276.972656 C 200.480469 271.5 200.828125 266.964844 203.371094 261.988281 C 205.574219 258.347656 208.789062 255.476562 211.820312 252.535156 C 212.628906 251.742188 213.4375 250.953125 214.242188 250.160156 C 214.972656 249.441406 215.703125 248.726562 216.4375 248.011719 C 217.503906 246.949219 218.496094 245.839844 219.472656 244.695312 C 221.976562 241.804688 224.714844 239.136719 227.421875 236.441406 L 229.152344 234.710938 C 230.660156 233.207031 232.171875 231.703125 233.679688 230.199219 C 235.214844 228.667969 236.75 227.136719 238.28125 225.605469 C 240.976562 222.914062 243.675781 220.222656 246.375 217.535156 L 247.648438 216.261719 L 249.011719 214.917969 C 250.195312 213.761719 250.195312 213.761719 251.183594 212.445312 C 252.230469 211.167969 253.296875 210.292969 254.613281 209.300781 C 257.019531 207.371094 259.113281 205.296875 261.199219 203.027344 C 264.308594 199.652344 267.480469 196.355469 270.714844 193.101562 L 272.015625 191.78125 C 280.949219 182.835938 280.949219 182.835938 286.4375 181.179688 C 287.597656 180.945312 288.679688 180.890625 289.863281 180.867188 L 291.292969 180.835938 L 292.835938 180.8125 L 294.453125 180.777344 C 295.585938 180.757812 296.71875 180.734375 297.847656 180.714844 C 299.546875 180.6875 301.246094 180.65625 302.941406 180.621094 C 312.09375 180.445312 321.242188 180.363281 330.394531 180.625 "/><path style=" stroke:none;fill-rule:nonzero;fill:#f06b07;fill-opacity:1;" d="M 216.390625 183.492188 C 218.570312 184.074219 219.984375 185.121094 221.683594 186.609375 C 222.402344 187.957031 222.636719 188.65625 222.757812 190.140625 C 222.660156 192.097656 222.113281 193.453125 221.148438 195.152344 C 219.167969 198.148438 216.75 200.40625 214.027344 202.714844 C 212.246094 204.246094 210.667969 205.925781 209.09375 207.664062 C 206.21875 210.804688 203.25 213.835938 200.230469 216.832031 C 199.351562 217.703125 198.476562 218.578125 197.601562 219.449219 C 195.746094 221.296875 193.890625 223.144531 192.03125 224.992188 C 189.867188 227.144531 187.703125 229.296875 185.542969 231.453125 C 184.6875 232.304688 183.828125 233.15625 182.972656 234.007812 C 180.480469 236.488281 178.042969 238.984375 175.757812 241.660156 C 174.832031 242.730469 173.851562 243.726562 172.839844 244.71875 L 171.683594 245.863281 L 169.335938 248.171875 C 166.9375 250.550781 164.636719 253.023438 162.441406 255.589844 C 159.550781 258.84375 156.558594 262 153.457031 265.058594 L 152.671875 265.835938 C 151.351562 267.140625 150.03125 268.4375 148.703125 269.726562 L 147.21875 271.1875 L 145.878906 272.492188 C 144.785156 273.753906 144.242188 274.667969 143.789062 276.261719 C 143.859375 278.558594 143.984375 279.75 145.121094 281.757812 C 146.460938 283.519531 147.902344 284.777344 149.617188 286.15625 C 152.03125 288.152344 154.25 290.210938 156.328125 292.554688 C 158.042969 294.480469 159.78125 296.261719 161.757812 297.921875 C 166.789062 302.265625 171.839844 306.859375 176.160156 311.914062 C 178.070312 314.109375 180.101562 316.160156 182.167969 318.203125 C 182.515625 318.550781 182.863281 318.894531 183.222656 319.25 C 183.894531 319.917969 184.566406 320.582031 185.238281 321.246094 C 186.015625 322.019531 186.796875 322.796875 187.570312 323.574219 C 188.339844 324.339844 189.113281 325.105469 189.890625 325.859375 C 190.867188 326.863281 191.800781 327.902344 192.695312 328.980469 C 193.574219 330.027344 194.355469 330.832031 195.4375 331.691406 C 196.5625 332.597656 197.378906 333.445312 198.308594 334.542969 C 200.28125 336.820312 202.375 338.957031 204.511719 341.082031 L 205.597656 342.175781 C 207.636719 344.210938 209.722656 346.15625 211.90625 348.039062 C 214.226562 350.042969 216.472656 352.125 218.695312 354.230469 C 219.292969 354.796875 219.898438 355.355469 220.507812 355.910156 C 221.332031 356.734375 221.917969 357.402344 222.441406 358.445312 C 222.882812 360.808594 222.652344 362.808594 221.9375 365.09375 C 220.496094 367.117188 219.015625 368.722656 216.894531 370.039062 C 215.160156 370.613281 213.667969 370.734375 211.851562 370.542969 C 208.867188 369.777344 206.546875 368.136719 204.304688 366.066406 C 202.707031 364.398438 201.300781 362.589844 199.867188 360.785156 C 198.585938 359.265625 197.207031 358.011719 195.683594 356.742188 C 194.644531 355.867188 193.664062 354.949219 192.695312 354 L 191.8125 353.140625 L 191.179688 352.394531 L 191.179688 351.386719 L 190.332031 351.070312 C 189.015625 350.289062 188.226562 349.328125 187.285156 348.140625 C 186.316406 346.949219 185.222656 345.902344 184.121094 344.832031 L 183.097656 343.789062 C 181.3125 341.980469 179.527344 340.210938 177.597656 338.558594 C 175.101562 336.417969 172.820312 334.066406 170.507812 331.722656 L 169.304688 330.53125 C 168.039062 329.253906 166.8125 327.945312 165.589844 326.621094 C 159.800781 320.386719 153.75 314.410156 147.714844 308.417969 C 146.859375 307.566406 146.007812 306.714844 145.15625 305.859375 C 143.585938 304.292969 142 302.742188 140.414062 301.1875 C 138.816406 299.617188 137.21875 298.042969 135.625 296.464844 C 134.421875 295.273438 133.210938 294.082031 132 292.898438 C 130.59375 291.523438 129.191406 290.136719 127.796875 288.75 C 127.363281 288.332031 126.933594 287.914062 126.488281 287.484375 C 123.875 284.871094 121.839844 282.300781 120.59375 278.78125 C 120.296875 277.003906 120.246094 275.515625 120.59375 273.742188 C 122.101562 269.878906 124.898438 267.191406 127.84375 264.382812 C 130.476562 261.835938 133.039062 259.292969 135.421875 256.507812 C 136.855469 254.867188 138.425781 253.367188 139.988281 251.847656 C 141.355469 250.503906 142.667969 249.109375 143.921875 247.65625 C 149.734375 240.984375 156.003906 234.746094 162.285156 228.519531 C 163.800781 227.019531 165.316406 225.515625 166.828125 224.007812 L 167.863281 222.988281 C 169.222656 221.636719 170.496094 220.316406 171.683594 218.804688 L 172.527344 217.777344 L 173.535156 217.777344 L 173.886719 216.925781 C 174.71875 215.445312 175.753906 214.429688 176.960938 213.234375 L 177.707031 212.492188 C 178.515625 211.6875 179.328125 210.882812 180.140625 210.078125 C 180.710938 209.515625 181.277344 208.953125 181.84375 208.386719 C 183.335938 206.902344 184.828125 205.417969 186.328125 203.9375 C 188.710938 201.570312 191.097656 199.203125 193.476562 196.835938 C 194.304688 196.011719 195.132812 195.191406 195.960938 194.371094 C 198.417969 191.933594 200.832031 189.488281 203.054688 186.832031 C 204.097656 185.664062 205.136719 184.703125 206.492188 183.917969 C 209.636719 182.90625 213.140625 183.066406 216.390625 183.492188 "/><path style=" stroke:none;fill-rule:nonzero;fill:#f06b06;fill-opacity:1;" d="M 362.101562 224.332031 C 363.628906 224.117188 363.628906 224.117188 365.628906 224.332031 C 367.070312 225.269531 368.199219 226.476562 369.378906 227.71875 L 370.425781 228.773438 C 371.523438 229.890625 372.609375 231.015625 373.695312 232.144531 C 374.425781 232.890625 375.160156 233.632812 375.890625 234.375 C 378.839844 237.378906 381.746094 240.398438 384.503906 243.585938 C 385.75 245.023438 387.027344 246.433594 388.316406 247.839844 L 389.109375 248.703125 C 390.675781 250.386719 392.28125 251.898438 394.070312 253.339844 C 395.4375 254.597656 396.503906 256.089844 397.605469 257.582031 C 398.367188 258.621094 398.367188 258.621094 399.261719 259.445312 L 399.914062 260.128906 L 399.914062 261.136719 L 400.921875 261.136719 C 401.667969 261.894531 401.667969 261.894531 402.53125 262.933594 C 404.253906 264.960938 406.078125 266.839844 407.980469 268.699219 C 411.746094 272.378906 411.746094 272.378906 412.296875 274.140625 C 412.863281 276.996094 412.882812 280.125 411.984375 282.910156 C 410.484375 286.363281 407.460938 288.914062 404.820312 291.507812 C 403.949219 292.390625 403.144531 293.308594 402.339844 294.253906 C 398.953125 298.175781 395.21875 301.816406 391.277344 305.175781 C 389.535156 306.710938 387.925781 308.382812 386.300781 310.042969 L 383.78125 312.5625 L 382.761719 313.601562 C 381.027344 315.355469 379.300781 317.082031 377.414062 318.675781 C 374.921875 320.808594 372.648438 323.164062 370.351562 325.503906 C 368.683594 327.199219 366.996094 328.734375 365.125 330.210938 C 364.28125 331.042969 363.441406 331.886719 362.605469 332.730469 C 361.71875 333.609375 360.832031 334.492188 359.945312 335.371094 L 357.652344 337.652344 L 356.089844 339.207031 C 353.371094 341.90625 350.675781 344.601562 348.207031 347.539062 C 346.839844 349.078125 345.292969 350.460938 343.445312 351.386719 C 342.226562 351.472656 341.011719 351.523438 339.789062 351.542969 L 337.796875 351.601562 C 335.882812 351.386719 335.882812 351.386719 334.179688 350.425781 C 332.933594 349.429688 332.132812 348.730469 331.34375 347.351562 C 330.503906 345.09375 330.03125 342.882812 330.128906 340.476562 C 330.433594 338.730469 331.296875 337.765625 332.378906 336.394531 C 334.316406 334.140625 336.417969 332.058594 338.523438 329.964844 C 339.042969 329.445312 339.5625 328.929688 340.078125 328.410156 C 341.476562 327.011719 342.875 325.613281 344.273438 324.21875 C 345.742188 322.753906 347.210938 321.285156 348.679688 319.820312 C 351.140625 317.359375 353.605469 314.898438 356.070312 312.4375 C 358.914062 309.601562 361.761719 306.757812 364.601562 303.917969 C 367.636719 300.882812 370.671875 297.851562 373.707031 294.820312 C 374.578125 293.949219 375.453125 293.078125 376.324219 292.207031 C 377.695312 290.835938 379.066406 289.464844 380.4375 288.097656 C 380.941406 287.597656 381.441406 287.097656 381.945312 286.59375 C 382.632812 285.90625 383.320312 285.222656 384.007812 284.539062 L 385.171875 283.375 C 386.300781 282.3125 386.300781 282.3125 387.660156 281.234375 C 388.863281 280.367188 388.863281 280.367188 389.515625 279.160156 C 389.855469 277.660156 390.003906 276.328125 389.753906 274.800781 C 389.019531 272.980469 387.636719 271.972656 386.140625 270.753906 L 384.789062 269.707031 C 383.820312 268.921875 382.855469 268.132812 381.890625 267.34375 L 380.542969 266.265625 C 378.421875 264.480469 376.574219 262.507812 374.769531 260.410156 C 373.335938 258.792969 371.871094 257.296875 370.261719 255.851562 L 369.238281 254.929688 C 368.570312 254.332031 367.894531 253.742188 367.214844 253.15625 C 365.679688 251.789062 364.664062 250.625 363.660156 248.808594 C 362.636719 245.539062 362.835938 241.972656 362.792969 238.574219 C 362.769531 237.167969 362.742188 235.761719 362.710938 234.359375 L 362.691406 233.335938 C 362.625 230.320312 362.398438 227.328125 362.101562 224.332031 "/><path style=" stroke:none;fill-rule:nonzero;fill:#f26d08;fill-opacity:1;" d="M 312.34375 367.714844 L 314.269531 367.730469 L 315.339844 367.726562 C 316.507812 367.726562 317.671875 367.742188 318.835938 367.757812 C 319.65625 367.761719 320.476562 367.765625 321.296875 367.765625 C 323.460938 367.773438 325.625 367.796875 327.789062 367.820312 C 329.523438 367.839844 331.261719 367.84375 333 367.851562 C 340.84375 367.878906 348.667969 367.953125 356.496094 368.417969 C 359.917969 368.613281 363.339844 368.601562 366.765625 368.589844 L 368.949219 368.59375 C 372.726562 368.585938 376.492188 368.511719 380.261719 368.34375 L 381.375 368.292969 C 383.125 368.21875 384.875 368.132812 386.628906 368.027344 C 391.820312 367.78125 391.820312 367.78125 394.222656 368.929688 C 396.464844 370.433594 396.464844 370.433594 397.394531 371.550781 C 397.300781 373.066406 397.300781 373.066406 396.890625 374.578125 L 395.878906 376.089844 C 394.546875 376.28125 394.546875 376.28125 392.8125 376.277344 L 390.832031 376.289062 L 388.644531 376.277344 C 387.878906 376.277344 387.113281 376.28125 386.347656 376.285156 C 384.261719 376.289062 382.179688 376.285156 380.09375 376.277344 C 377.914062 376.269531 375.730469 376.273438 373.546875 376.273438 C 369.875 376.273438 366.203125 376.269531 362.53125 376.261719 C 358.300781 376.25 354.066406 376.246094 349.832031 376.25 C 345.753906 376.253906 341.675781 376.25 337.597656 376.246094 C 335.867188 376.242188 334.132812 376.242188 332.402344 376.242188 C 330.355469 376.242188 328.308594 376.238281 326.261719 376.230469 C 325.515625 376.230469 324.769531 376.230469 324.019531 376.230469 C 313.230469 376.25 313.230469 376.25 309.570312 374.167969 C 308.65625 373.066406 308.65625 373.066406 308.089844 371.835938 L 308.152344 370.542969 C 309.46875 368.871094 310.222656 368.105469 312.34375 367.714844 "/><path style=" stroke:none;fill-rule:nonzero;fill:#ec7014;fill-opacity:1;" d="M 286.007812 390.460938 L 287.777344 390.460938 L 288.769531 390.449219 C 289.863281 390.445312 290.953125 390.449219 292.042969 390.457031 C 292.828125 390.457031 293.613281 390.453125 294.398438 390.449219 C 296.527344 390.445312 298.65625 390.449219 300.78125 390.457031 C 303.011719 390.464844 305.242188 390.460938 307.46875 390.460938 C 311.214844 390.457031 314.957031 390.464844 318.703125 390.476562 C 323.027344 390.488281 327.351562 390.492188 331.675781 390.484375 C 335.839844 390.480469 340.003906 390.480469 344.167969 390.488281 C 345.9375 390.492188 347.707031 390.492188 349.480469 390.488281 C 351.566406 390.488281 353.652344 390.492188 355.738281 390.503906 C 356.503906 390.507812 357.265625 390.507812 358.03125 390.503906 C 359.078125 390.5 360.125 390.507812 361.171875 390.515625 L 362.941406 390.519531 C 364.996094 390.753906 366.316406 391.269531 368.152344 392.222656 L 369.160156 393.738281 C 369.191406 395.5 369.191406 395.5 368.65625 397.265625 C 367.308594 398.164062 366.65625 398.519531 365.125 398.777344 C 364.0625 398.664062 363.003906 398.542969 361.945312 398.410156 C 359.234375 398.140625 356.511719 398.203125 353.789062 398.207031 C 353.109375 398.207031 352.429688 398.207031 351.753906 398.207031 C 349.914062 398.203125 348.074219 398.207031 346.234375 398.210938 C 345.082031 398.210938 343.925781 398.210938 342.773438 398.210938 C 333.78125 398.210938 324.792969 398.265625 315.804688 398.417969 C 314.457031 398.441406 313.113281 398.464844 311.765625 398.484375 C 307.859375 398.550781 303.953125 398.617188 300.046875 398.707031 C 298.433594 398.738281 296.820312 398.769531 295.207031 398.796875 C 294.457031 398.808594 293.710938 398.824219 292.960938 398.84375 C 286.574219 399.011719 286.574219 399.011719 284.296875 398.078125 C 282.941406 397.265625 282.941406 397.265625 281.933594 396.320312 C 281.429688 395.25 281.429688 395.25 281.429688 393.988281 C 281.933594 392.730469 281.933594 392.730469 283.019531 391.65625 C 284.457031 390.710938 284.457031 390.710938 286.007812 390.460938 "/><path style=" stroke:none;fill-rule:nonzero;fill:#f07110;fill-opacity:1;" d="M 378.644531 341.964844 C 382.636719 342.238281 386.605469 342.332031 390.605469 342.3125 L 392.03125 342.308594 C 393.949219 342.296875 395.867188 342.285156 397.785156 342.261719 C 399.148438 342.246094 400.515625 342.238281 401.882812 342.230469 L 403.125 342.207031 C 405.609375 342.199219 407.660156 342.445312 409.996094 343.316406 C 410.90625 344.742188 411 345.765625 411.132812 347.445312 L 411.007812 348.863281 L 409.996094 349.871094 C 408.640625 349.984375 407.328125 350.035156 405.964844 350.046875 L 404.726562 350.066406 C 403.84375 350.082031 402.960938 350.09375 402.078125 350.105469 C 399.777344 350.136719 397.476562 350.183594 395.175781 350.234375 L 393.785156 350.261719 C 388.800781 350.382812 383.847656 350.753906 378.878906 351.183594 C 376.632812 351.367188 374.4375 351.488281 372.183594 351.386719 C 370.703125 350.597656 370.703125 350.597656 369.664062 349.367188 C 369.160156 347.636719 369.160156 347.636719 369.160156 345.839844 C 369.664062 344.453125 369.664062 344.453125 370.671875 343.316406 C 373.503906 341.789062 375.488281 341.683594 378.644531 341.964844 "/><path style=" stroke:none;fill-rule:nonzero;fill:#007f90;fill-opacity:1;" d="M 347.480469 282.816406 L 347.984375 282.816406 L 347.984375 285.839844 L 346.46875 285.839844 L 346.722656 287.101562 C 346.46875 288.867188 346.46875 288.867188 345.765625 289.839844 C 343.5 292.207031 340.988281 293.867188 338.203125 295.566406 C 335.636719 297.253906 333.746094 299.507812 331.753906 301.816406 C 330.183594 303.632812 328.53125 305.347656 326.839844 307.046875 L 326.109375 307.785156 C 324.761719 309.125 323.367188 310.410156 321.925781 311.644531 C 319.726562 313.5625 317.660156 315.59375 315.605469 317.664062 L 314.417969 318.855469 C 313.570312 319.703125 312.726562 320.550781 311.882812 321.398438 C 310.542969 322.746094 309.203125 324.089844 307.863281 325.433594 C 305.015625 328.285156 302.171875 331.136719 299.328125 333.992188 C 296.03125 337.300781 292.734375 340.609375 289.433594 343.914062 C 288.117188 345.234375 286.804688 346.554688 285.488281 347.875 L 283.050781 350.316406 L 281.957031 351.417969 C 279.96875 353.414062 277.90625 355.324219 275.765625 357.152344 C 274.386719 358.371094 273.164062 359.71875 271.945312 361.089844 C 271.074219 362.058594 270.203125 363.023438 269.328125 363.988281 L 268.609375 364.898438 C 267.816406 365.503906 267.816406 365.503906 266.34375 365.832031 L 264.632812 365.976562 L 262.9375 366.144531 C 261.261719 366.007812 261.261719 366.007812 259.804688 365.261719 C 257.734375 363.578125 255.878906 361.734375 254.015625 359.832031 L 252.890625 358.691406 C 251.980469 357.769531 251.074219 356.847656 250.171875 355.921875 L 251.683594 355.921875 C 252.589844 356.761719 253.460938 357.632812 254.300781 358.539062 C 257.410156 361.773438 257.410156 361.773438 261.261719 363.988281 C 263.070312 364.367188 263.070312 364.367188 264.792969 363.988281 C 267.539062 362.417969 269.628906 360.300781 271.84375 358.0625 L 272.980469 356.925781 C 273.769531 356.132812 274.554688 355.34375 275.34375 354.550781 C 276.546875 353.335938 277.757812 352.125 278.96875 350.914062 C 279.734375 350.144531 280.5 349.378906 281.265625 348.609375 L 282.367188 347.507812 L 283.378906 346.488281 L 284.269531 345.589844 C 285.007812 344.84375 285.007812 344.84375 285.464844 343.824219 L 286.472656 343.824219 L 286.878906 342.917969 C 287.496094 341.773438 288.128906 341.039062 289.054688 340.136719 L 289.878906 339.320312 C 290.488281 338.757812 291.105469 338.195312 291.742188 337.660156 C 295.15625 334.777344 298.265625 331.582031 301.414062 328.414062 C 302.484375 327.339844 303.550781 326.265625 304.621094 325.195312 C 306.890625 322.917969 309.160156 320.640625 311.429688 318.359375 C 314.058594 315.71875 316.691406 313.078125 319.324219 310.4375 C 320.371094 309.386719 321.417969 308.332031 322.464844 307.28125 C 328.210938 301.511719 328.210938 301.511719 331.09375 299.097656 C 331.851562 298.445312 332.542969 297.71875 333.234375 296.996094 L 334.371094 295.925781 L 335.34375 295.707031 C 336.425781 295.484375 336.425781 295.484375 337.246094 294.714844 L 338.09375 293.828125 L 339.023438 292.867188 L 339.980469 291.859375 C 340.609375 291.199219 341.238281 290.542969 341.875 289.886719 L 342.714844 289 L 343.445312 288.363281 L 344.453125 288.363281 L 344.832031 287.574219 C 345.660156 285.957031 346.570312 284.390625 347.480469 282.816406 "/><path style=" stroke:none;fill-rule:nonzero;fill:#09add1;fill-opacity:1;" d="M 343.949219 182.484375 C 345.648438 183.210938 346.761719 184.121094 347.984375 185.507812 C 348.507812 187.085938 348.542969 188.160156 348.535156 189.8125 L 348.53125 191.566406 L 348.519531 193.496094 L 348.511719 195.527344 C 348.507812 196.605469 348.503906 197.6875 348.5 198.765625 C 348.484375 202.515625 348.488281 206.261719 348.496094 210.011719 C 348.507812 218.226562 348.496094 226.441406 348.472656 234.65625 C 348.460938 239.359375 348.453125 244.058594 348.464844 248.761719 C 348.472656 252.910156 348.46875 257.058594 348.449219 261.207031 C 348.441406 263.386719 348.4375 265.570312 348.449219 267.753906 C 348.460938 269.796875 348.453125 271.839844 348.4375 273.882812 C 348.433594 274.625 348.433594 275.371094 348.441406 276.117188 C 348.476562 279.082031 348.472656 281.734375 347.238281 284.464844 C 345.636719 287.058594 343.863281 289.09375 341.492188 291 C 339.816406 292.394531 338.339844 293.984375 336.832031 295.558594 L 335.882812 296.429688 L 334.875 296.429688 L 334.875 295.421875 L 334.042969 295.085938 C 332.464844 294.1875 331.300781 292.96875 330.046875 291.679688 L 329.234375 290.863281 C 328.382812 290 327.53125 289.132812 326.679688 288.269531 C 325.839844 287.410156 324.996094 286.554688 324.148438 285.699219 C 323.625 285.167969 323.101562 284.636719 322.578125 284.101562 C 321.214844 282.722656 319.800781 281.398438 318.328125 280.132812 C 316 278.117188 313.835938 275.949219 311.671875 273.761719 L 310.40625 272.488281 C 309.085938 271.164062 307.769531 269.835938 306.449219 268.507812 C 304.703125 266.75 302.957031 264.992188 301.207031 263.234375 L 299.992188 262.007812 L 298.871094 260.878906 L 297.882812 259.882812 C 297.089844 259.074219 297.089844 259.074219 296.050781 258.613281 L 296.050781 257.605469 L 294.539062 257.101562 C 293.664062 256.285156 292.84375 255.449219 292.019531 254.582031 C 291.320312 253.867188 290.621094 253.15625 289.921875 252.445312 L 288.722656 251.222656 C 286.9375 249.402344 285.144531 247.585938 283.351562 245.773438 C 282.402344 244.816406 281.460938 243.855469 280.519531 242.890625 C 279.15625 241.503906 277.792969 240.117188 276.421875 238.738281 L 275.148438 237.425781 L 273.949219 236.226562 L 272.902344 235.164062 C 271.882812 234.3125 271.882812 234.3125 270.523438 234.253906 C 269.277344 234.320312 269.277344 234.320312 268.3125 235.1875 L 267.40625 236.179688 L 266.484375 237.171875 L 265.800781 237.941406 L 264.289062 237.4375 C 267.804688 233.160156 267.804688 233.160156 269.328125 232.398438 C 270.761719 232.5 270.761719 232.5 272.355469 232.902344 C 273.542969 233.730469 273.542969 233.730469 274.6875 234.824219 L 275.988281 236.054688 C 278.492188 238.515625 280.980469 240.992188 283.449219 243.488281 L 284.753906 244.78125 C 285.90625 245.949219 286.996094 247.144531 288.078125 248.375 C 291.882812 253.023438 291.882812 253.023438 296.554688 256.597656 L 296.554688 257.605469 L 298.070312 258.109375 C 298.917969 258.941406 299.761719 259.78125 300.589844 260.632812 C 301.175781 261.128906 301.761719 261.625 302.355469 262.113281 C 303.988281 263.492188 305.269531 265.039062 306.640625 266.683594 C 307.566406 267.496094 308.515625 268.285156 309.484375 269.054688 L 310.167969 269.707031 L 310.167969 270.714844 L 311.683594 271.21875 C 312.511719 272.082031 312.511719 272.082031 313.382812 273.140625 C 314.726562 274.726562 316.054688 276.03125 317.730469 277.269531 C 319.546875 278.675781 321.164062 280.179688 322.773438 281.808594 L 324.804688 283.839844 C 329.3125 288.347656 329.3125 288.347656 330.375 289.410156 C 330.96875 290.003906 331.566406 290.589844 332.175781 291.171875 C 332.753906 291.734375 333.316406 292.308594 333.867188 292.898438 L 333.867188 293.90625 L 335.882812 293.90625 C 337.179688 292.96875 337.179688 292.96875 338.433594 291.734375 L 339.746094 290.511719 C 340.4375 289.84375 341.113281 289.164062 341.773438 288.464844 L 342.4375 287.859375 L 343.445312 287.859375 L 343.824219 286.566406 C 344.3125 285.226562 344.773438 284.234375 345.492188 283.035156 C 347 280.367188 347.039062 278.117188 347.046875 275.082031 L 347.050781 273.964844 C 347.054688 272.734375 347.054688 271.503906 347.054688 270.273438 L 347.0625 267.625 C 347.070312 265.230469 347.074219 262.832031 347.074219 260.433594 C 347.078125 258.9375 347.078125 257.4375 347.082031 255.941406 C 347.089844 251.25 347.09375 246.5625 347.09375 241.871094 C 347.097656 236.460938 347.105469 231.050781 347.121094 225.644531 C 347.132812 221.457031 347.136719 217.273438 347.136719 213.089844 C 347.136719 210.59375 347.140625 208.09375 347.148438 205.597656 C 347.15625 203.246094 347.160156 200.894531 347.15625 198.546875 C 347.15625 197.683594 347.15625 196.824219 347.160156 195.964844 C 347.167969 194.785156 347.167969 193.605469 347.160156 192.425781 L 347.164062 190.433594 C 346.898438 187.75 346.132812 185.496094 344.609375 183.238281 Z M 343.949219 182.484375 "/><path style=" stroke:none;fill-rule:nonzero;fill:#0a232a;fill-opacity:1;" d="M 270.550781 233.71875 C 271.851562 233.910156 271.851562 233.910156 272.9375 234.695312 L 274.03125 235.8125 L 275.289062 237.074219 L 276.625 238.453125 L 278.730469 240.582031 C 279.710938 241.574219 280.6875 242.578125 281.664062 243.578125 C 283.367188 245.324219 285.082031 247.058594 286.792969 248.792969 C 287.707031 249.71875 288.613281 250.644531 289.519531 251.570312 C 292.082031 254.1875 292.082031 254.1875 294.84375 256.585938 L 296.050781 257.605469 L 296.050781 258.613281 L 296.929688 258.992188 C 298.246094 259.71875 299.121094 260.558594 300.175781 261.625 L 301.421875 262.875 L 302.757812 264.230469 L 304.855469 266.339844 C 305.832031 267.328125 306.8125 268.3125 307.789062 269.304688 C 309.488281 271.023438 311.191406 272.738281 312.898438 274.457031 C 313.800781 275.367188 314.707031 276.28125 315.609375 277.195312 C 317.800781 279.40625 320.027344 281.527344 322.386719 283.554688 C 323.628906 284.632812 324.792969 285.785156 325.953125 286.953125 L 327.347656 288.351562 L 328.761719 289.78125 L 330.210938 291.238281 C 331.429688 292.460938 332.648438 293.6875 333.867188 294.917969 L 334.875 295.925781 L 332.859375 295.925781 C 331.960938 295.210938 331.960938 295.210938 331.054688 294.210938 L 330.042969 293.105469 L 328.980469 291.921875 C 328.253906 291.132812 327.527344 290.339844 326.800781 289.550781 L 325.746094 288.394531 C 324.613281 287.164062 323.453125 285.953125 322.269531 284.769531 L 321.355469 283.851562 C 320.371094 282.925781 319.367188 282.039062 318.347656 281.152344 C 316.324219 279.390625 314.359375 277.570312 312.40625 275.726562 L 310.515625 273.941406 L 309.429688 272.921875 C 308.46875 272.023438 307.507812 271.128906 306.539062 270.238281 C 301.203125 265.3125 296.066406 260.203125 290.945312 255.054688 L 288.417969 252.519531 C 286.554688 250.648438 284.6875 248.777344 282.824219 246.90625 C 282.058594 246.136719 281.292969 245.367188 280.523438 244.597656 C 279.601562 243.675781 278.683594 242.753906 277.769531 241.828125 L 276.042969 240.085938 L 275.15625 239.1875 C 273.648438 237.617188 273.648438 237.617188 271.851562 236.429688 L 271.851562 235.421875 C 270.703125 235.457031 270.703125 235.457031 269.328125 235.925781 C 268.257812 236.839844 267.238281 237.804688 266.269531 238.824219 L 265.410156 239.703125 C 264.507812 240.625 263.609375 241.550781 262.710938 242.480469 C 261.8125 243.410156 260.910156 244.335938 260.003906 245.261719 C 259.441406 245.835938 258.882812 246.414062 258.328125 246.992188 C 257.128906 248.21875 256.359375 248.988281 254.707031 249.539062 L 253.699219 251.050781 L 252.691406 251.050781 L 252.328125 251.914062 C 251.546875 253.316406 250.601562 254.28125 249.46875 255.417969 L 248.132812 256.757812 C 247.671875 257.214844 247.210938 257.671875 246.738281 258.140625 L 245.355469 259.535156 L 244.015625 260.871094 L 242.796875 262.085938 C 241.617188 263.136719 240.445312 263.886719 239.078125 264.664062 C 236.835938 266.617188 234.917969 268.902344 232.984375 271.152344 C 231.234375 273.105469 229.355469 274.929688 227.484375 276.765625 L 225.96875 276.261719 C 228.121094 274.097656 230.273438 271.9375 232.425781 269.777344 C 233.15625 269.042969 233.886719 268.308594 234.617188 267.574219 C 235.671875 266.515625 236.730469 265.453125 237.789062 264.394531 L 238.761719 263.414062 C 240.675781 261.496094 242.65625 259.6875 244.707031 257.914062 C 245.9375 256.835938 247.089844 255.695312 248.238281 254.53125 L 249.605469 253.152344 L 250.992188 251.746094 C 253.660156 249.039062 256.300781 246.398438 259.246094 243.992188 C 259.78125 243.410156 260.292969 242.8125 260.789062 242.199219 C 262.464844 240.246094 264.257812 238.453125 266.117188 236.683594 L 266.957031 235.855469 C 268.976562 233.964844 268.976562 233.964844 270.550781 233.71875 "/><path style=" stroke:none;fill-rule:nonzero;fill:#5a1a1a;fill-opacity:1;" d="M 347.480469 282.816406 L 347.984375 282.816406 L 347.984375 285.839844 L 346.46875 285.839844 L 346.722656 287.101562 C 346.46875 288.867188 346.46875 288.867188 345.765625 289.839844 C 343.5 292.207031 340.988281 293.867188 338.203125 295.566406 C 335.636719 297.253906 333.746094 299.507812 331.753906 301.816406 C 330.183594 303.632812 328.53125 305.347656 326.839844 307.046875 L 326.109375 307.785156 C 324.761719 309.125 323.367188 310.410156 321.925781 311.644531 C 319.726562 313.5625 317.660156 315.59375 315.605469 317.664062 L 314.417969 318.855469 C 313.570312 319.703125 312.726562 320.550781 311.882812 321.398438 C 310.542969 322.746094 309.203125 324.089844 307.863281 325.433594 C 305.015625 328.285156 302.171875 331.136719 299.328125 333.992188 C 296.03125 337.300781 292.734375 340.609375 289.433594 343.914062 C 288.117188 345.234375 286.804688 346.554688 285.488281 347.875 L 283.050781 350.316406 L 281.957031 351.417969 C 279.96875 353.414062 277.90625 355.324219 275.765625 357.152344 C 274.386719 358.371094 273.164062 359.71875 271.945312 361.089844 C 271.074219 362.058594 270.203125 363.023438 269.328125 363.988281 L 268.535156 364.957031 L 267.816406 365.503906 C 266.765625 365.285156 266.765625 365.285156 265.800781 365 L 266.664062 364.242188 C 270.46875 360.871094 274.058594 357.308594 277.644531 353.707031 L 279.570312 351.78125 C 281.246094 350.101562 282.921875 348.421875 284.597656 346.738281 C 286.304688 345.03125 288.007812 343.320312 289.714844 341.613281 C 293.171875 338.148438 296.628906 334.683594 300.085938 331.21875 L 301.4375 329.859375 C 302.777344 328.527344 304.167969 327.253906 305.570312 325.988281 C 307.835938 323.921875 310.039062 321.8125 312.1875 319.621094 L 314.707031 317.101562 L 317.613281 314.175781 C 320.441406 311.332031 323.269531 308.492188 326.101562 305.652344 C 327.8125 303.9375 329.523438 302.21875 331.230469 300.5 C 332.882812 298.835938 334.542969 297.171875 336.199219 295.511719 C 336.832031 294.878906 337.464844 294.242188 338.09375 293.605469 C 338.972656 292.722656 339.851562 291.839844 340.734375 290.960938 L 341.523438 290.15625 C 342.144531 289.539062 342.792969 288.949219 343.445312 288.363281 L 344.453125 288.363281 L 344.832031 287.574219 C 345.660156 285.957031 346.570312 284.390625 347.480469 282.816406 "/><path style=" stroke:none;fill-rule:nonzero;fill:#05c5ed;fill-opacity:1;" d="M 258.742188 242.480469 L 260.253906 242.984375 C 258.742188 244.835938 257.265625 246.535156 255.433594 248.074219 C 252.785156 250.359375 250.355469 252.847656 247.902344 255.335938 C 242.851562 260.460938 242.851562 260.460938 240.671875 262.316406 C 237.617188 264.933594 234.84375 267.855469 232.019531 270.714844 C 225.59375 277.21875 225.59375 277.21875 222.445312 279.898438 C 220.15625 281.933594 218.039062 284.164062 215.886719 286.34375 C 213.050781 289.21875 210.21875 292.0625 207.148438 294.6875 C 205.714844 295.9375 204.421875 297.320312 203.113281 298.695312 L 202.273438 299.453125 L 201.265625 299.453125 C 201.417969 298.546875 201.417969 298.546875 201.769531 297.4375 C 202.453125 296.628906 202.453125 296.628906 203.339844 295.832031 L 204.351562 294.902344 L 205.457031 293.90625 C 209.488281 290.210938 213.363281 286.378906 217.183594 282.460938 L 218.421875 281.207031 L 219.519531 280.085938 L 220.425781 279.285156 L 221.433594 279.285156 L 221.9375 277.773438 C 222.601562 277.121094 222.601562 277.121094 223.511719 276.386719 C 226.054688 274.238281 228.363281 271.878906 230.691406 269.503906 C 232.214844 267.960938 233.746094 266.476562 235.394531 265.070312 C 237.683594 263.078125 239.820312 260.953125 241.953125 258.796875 L 243.171875 257.574219 C 244.445312 256.292969 245.71875 255.011719 246.988281 253.730469 C 248.667969 252.035156 250.351562 250.34375 252.035156 248.652344 L 253.195312 247.480469 C 257.097656 243.5625 257.097656 243.5625 258.742188 242.480469 "/><path style=" stroke:none;fill-rule:nonzero;fill:#fb911b;fill-opacity:1;" d="M 158.410156 295.421875 C 160.65625 296.542969 162.179688 298.132812 163.90625 299.910156 C 164.867188 300.871094 165.851562 301.757812 166.886719 302.636719 C 170.226562 305.519531 173.339844 308.632812 176.222656 311.976562 C 178.109375 314.152344 180.121094 316.179688 182.167969 318.203125 C 182.515625 318.550781 182.863281 318.894531 183.222656 319.25 C 183.894531 319.917969 184.566406 320.582031 185.238281 321.246094 C 186.015625 322.019531 186.796875 322.796875 187.570312 323.574219 C 188.339844 324.339844 189.113281 325.105469 189.890625 325.859375 C 190.867188 326.863281 191.800781 327.902344 192.695312 328.980469 C 193.574219 330.027344 194.355469 330.832031 195.433594 331.691406 C 196.5625 332.597656 197.378906 333.445312 198.308594 334.542969 C 200.28125 336.820312 202.375 338.957031 204.511719 341.082031 L 205.597656 342.175781 C 207.9375 344.507812 210.347656 346.722656 212.859375 348.863281 L 211.347656 349.367188 C 204.441406 342.488281 197.539062 335.601562 190.640625 328.714844 C 187.4375 325.515625 184.234375 322.320312 181.027344 319.125 C 178.234375 316.339844 175.441406 313.554688 172.652344 310.765625 C 171.171875 309.289062 169.695312 307.8125 168.214844 306.339844 C 166.820312 304.953125 165.429688 303.566406 164.042969 302.175781 C 163.53125 301.664062 163.019531 301.15625 162.503906 300.644531 C 161.808594 299.953125 161.113281 299.257812 160.417969 298.558594 L 159.234375 297.378906 L 158.410156 296.429688 Z M 158.410156 295.421875 "/><path style=" stroke:none;fill-rule:nonzero;fill:#05c5ed;fill-opacity:1;" d="M 269.328125 232.398438 C 270.761719 232.5 270.761719 232.5 272.355469 232.902344 C 273.542969 233.730469 273.542969 233.730469 274.6875 234.824219 L 275.988281 236.054688 C 278.492188 238.515625 280.980469 240.992188 283.449219 243.488281 L 284.753906 244.78125 C 285.90625 245.949219 286.996094 247.144531 288.078125 248.375 C 291.882812 253.023438 291.882812 253.023438 296.554688 256.597656 L 296.554688 257.605469 L 298.070312 258.109375 C 298.917969 258.941406 299.761719 259.78125 300.589844 260.632812 C 301.753906 261.65625 302.929688 262.664062 304.117188 263.65625 L 303.613281 265.671875 L 302.214844 264.257812 L 300.402344 262.425781 L 299.480469 261.492188 L 298.59375 260.601562 L 297.777344 259.777344 C 297.066406 259.066406 297.066406 259.066406 296.050781 258.613281 L 296.050781 257.605469 L 294.539062 257.101562 C 293.664062 256.285156 292.84375 255.449219 292.019531 254.582031 C 291.320312 253.867188 290.621094 253.15625 289.921875 252.445312 L 288.722656 251.222656 C 286.9375 249.402344 285.144531 247.585938 283.351562 245.773438 C 282.402344 244.816406 281.460938 243.855469 280.519531 242.890625 C 279.15625 241.503906 277.792969 240.117188 276.417969 238.738281 L 275.148438 237.425781 L 273.949219 236.226562 L 272.902344 235.164062 C 271.882812 234.3125 271.882812 234.3125 270.523438 234.253906 C 269.277344 234.320312 269.277344 234.320312 268.3125 235.1875 L 267.40625 236.179688 L 266.484375 237.171875 L 265.800781 237.941406 L 264.289062 237.4375 C 267.804688 233.160156 267.804688 233.160156 269.328125 232.398438 "/><path style=" stroke:none;fill-rule:nonzero;fill:#067180;fill-opacity:1;" d="M 291.011719 338.277344 C 292.078125 338.488281 292.078125 338.488281 293.027344 338.78125 C 289.722656 342.109375 286.410156 345.4375 283.097656 348.761719 C 281.5625 350.304688 280.023438 351.847656 278.488281 353.394531 C 277.007812 354.886719 275.523438 356.378906 274.039062 357.867188 C 273.472656 358.433594 272.90625 359.003906 272.34375 359.570312 C 271.550781 360.371094 270.757812 361.167969 269.960938 361.960938 L 268.59375 363.335938 C 267.371094 364.441406 266.257812 365.261719 264.792969 366.007812 C 263.058594 366.226562 263.058594 366.226562 261.261719 366.007812 C 258.414062 364.410156 256.28125 362.152344 254.015625 359.832031 L 252.890625 358.691406 C 251.980469 357.769531 251.074219 356.847656 250.171875 355.921875 L 251.683594 355.921875 C 252.589844 356.761719 253.460938 357.632812 254.300781 358.539062 C 257.410156 361.773438 257.410156 361.773438 261.261719 363.988281 C 263.070312 364.367188 263.070312 364.367188 264.792969 363.988281 C 267.539062 362.417969 269.628906 360.300781 271.84375 358.0625 L 272.980469 356.925781 C 273.769531 356.132812 274.554688 355.34375 275.34375 354.550781 C 276.546875 353.335938 277.757812 352.125 278.96875 350.914062 C 279.734375 350.144531 280.5 349.378906 281.265625 348.609375 C 281.628906 348.246094 281.992188 347.882812 282.367188 347.507812 L 283.378906 346.488281 L 284.269531 345.589844 C 285.007812 344.84375 285.007812 344.84375 285.464844 343.824219 L 286.472656 343.824219 C 286.601562 343.53125 286.734375 343.234375 286.871094 342.933594 C 287.523438 341.730469 288.234375 340.867188 289.183594 339.882812 L 290.078125 338.929688 Z M 291.011719 338.277344 "/><path style=" stroke:none;fill-rule:nonzero;fill:#32bfda;fill-opacity:1;" d="M 343.949219 182.484375 C 345.648438 183.210938 346.761719 184.121094 347.984375 185.507812 C 348.507812 187.085938 348.546875 188.164062 348.539062 189.820312 L 348.539062 191.578125 L 348.527344 193.511719 L 348.519531 195.542969 C 348.511719 197.371094 348.503906 199.195312 348.492188 201.023438 L 348.476562 204.339844 C 348.453125 209.414062 348.417969 214.488281 348.386719 219.5625 C 348.371094 221.726562 348.355469 223.890625 348.34375 226.054688 C 348.316406 230.125 348.289062 234.195312 348.261719 238.265625 L 348.171875 252.203125 C 348.109375 261.734375 348.046875 271.265625 347.984375 280.800781 L 346.976562 280.800781 L 346.980469 279.371094 C 347.011719 267.886719 347.035156 256.402344 347.054688 244.917969 C 347.058594 239.363281 347.070312 233.8125 347.089844 228.257812 C 347.105469 223.417969 347.113281 218.574219 347.117188 213.734375 C 347.117188 211.171875 347.125 208.609375 347.132812 206.046875 C 347.144531 203.632812 347.148438 201.21875 347.144531 198.804688 C 347.144531 197.921875 347.148438 197.039062 347.15625 196.152344 C 347.164062 194.941406 347.160156 193.730469 347.15625 192.519531 L 347.167969 191.46875 C 347.144531 188.824219 346.5 186.894531 345.460938 184.5 C 344.683594 183.292969 344.683594 183.292969 343.949219 182.484375 "/><path style=" stroke:none;fill-rule:nonzero;fill:#5e1313;fill-opacity:1;" d="M 347.480469 282.816406 L 347.984375 282.816406 L 347.984375 285.839844 L 346.46875 285.839844 L 346.722656 287.101562 C 346.46875 288.867188 346.46875 288.867188 345.765625 289.839844 C 343.5 292.207031 340.988281 293.867188 338.203125 295.566406 C 335.636719 297.253906 333.746094 299.507812 331.753906 301.816406 C 330.183594 303.632812 328.53125 305.347656 326.839844 307.046875 L 326.109375 307.785156 C 324.75 309.136719 323.34375 310.433594 321.890625 311.679688 C 319.375 313.859375 317.046875 316.21875 314.707031 318.582031 L 313.378906 319.917969 C 312.304688 320.996094 311.238281 322.070312 310.167969 323.152344 L 310.167969 321.636719 C 311.433594 319.898438 312.773438 318.511719 314.414062 317.132812 C 317.09375 314.804688 319.574219 312.28125 322.066406 309.761719 C 322.945312 308.875 323.820312 307.992188 324.699219 307.113281 C 327.195312 304.605469 329.683594 302.097656 332.175781 299.585938 C 333.703125 298.042969 335.234375 296.5 336.769531 294.964844 C 337.351562 294.378906 337.933594 293.789062 338.511719 293.203125 C 339.320312 292.386719 340.128906 291.570312 340.941406 290.757812 L 342.335938 289.351562 L 343.445312 288.363281 L 344.453125 288.363281 L 344.832031 287.574219 C 345.660156 285.957031 346.570312 284.390625 347.480469 282.816406 "/><path style=" stroke:none;fill-rule:nonzero;fill:#1f4a83;fill-opacity:1;" d="M 396.386719 371.550781 L 397.394531 371.550781 C 397.140625 373.4375 396.953125 374.484375 395.878906 376.089844 C 394.535156 376.277344 394.535156 376.277344 392.792969 376.273438 L 390.796875 376.277344 L 388.59375 376.261719 L 386.28125 376.261719 C 384.1875 376.261719 382.09375 376.253906 379.996094 376.242188 C 377.808594 376.234375 375.621094 376.234375 373.433594 376.230469 C 369.289062 376.226562 365.148438 376.214844 361.003906 376.199219 C 356.285156 376.183594 351.566406 376.175781 346.851562 376.167969 C 337.144531 376.152344 327.4375 376.125 317.730469 376.089844 L 317.730469 375.585938 C 324.941406 374.996094 332.136719 375.027344 339.363281 375.058594 C 341.539062 375.070312 343.710938 375.074219 345.886719 375.078125 C 352.0625 375.089844 358.238281 375.109375 364.414062 375.128906 C 367.839844 375.144531 371.265625 375.152344 374.695312 375.15625 C 376.855469 375.160156 379.015625 375.167969 381.175781 375.179688 C 382.828125 375.1875 384.484375 375.1875 386.136719 375.1875 L 387.941406 375.203125 L 389.597656 375.199219 L 391.035156 375.203125 C 392.488281 375.070312 393.558594 374.699219 394.871094 374.074219 C 395.789062 373.371094 395.789062 373.371094 396.386719 372.5625 Z M 396.386719 371.550781 "/><path style=" stroke:none;fill-rule:nonzero;fill:#032b9e;fill-opacity:1;" d="M 411.007812 283.320312 L 411.007812 284.832031 C 410.359375 285.738281 410.359375 285.738281 409.460938 286.722656 L 408.484375 287.800781 C 407.289062 289.066406 406.058594 290.289062 404.820312 291.507812 C 403.949219 292.390625 403.144531 293.308594 402.339844 294.253906 C 398.953125 298.175781 395.21875 301.816406 391.277344 305.175781 C 389.535156 306.710938 387.925781 308.382812 386.300781 310.042969 L 383.78125 312.5625 L 382.761719 313.601562 C 376.402344 320.03125 376.402344 320.03125 374.199219 321.132812 C 374.859375 319.679688 375.5625 318.640625 376.6875 317.515625 L 377.605469 316.59375 L 378.609375 315.601562 L 379.667969 314.542969 C 380.824219 313.390625 381.980469 312.238281 383.136719 311.089844 L 385.542969 308.691406 C 387.648438 306.585938 389.761719 304.484375 391.871094 302.382812 C 394.027344 300.242188 396.179688 298.09375 398.332031 295.945312 C 402.554688 291.734375 406.777344 287.527344 411.007812 283.320312 "/><path style=" stroke:none;fill-rule:nonzero;fill:#040f60;fill-opacity:1;" d="M 220.929688 186.515625 C 221.667969 187.144531 221.667969 187.144531 222.441406 188.027344 C 222.851562 189.582031 222.734375 190.996094 222.441406 192.566406 C 220.609375 196.835938 217.503906 199.769531 214.027344 202.714844 C 212.339844 204.171875 210.851562 205.738281 209.363281 207.394531 C 204.777344 212.421875 199.90625 217.167969 195.089844 221.96875 L 192.183594 224.863281 C 189.835938 227.210938 187.484375 229.550781 185.132812 231.894531 L 185.132812 230.378906 C 186.117188 229.273438 187.140625 228.207031 188.207031 227.175781 L 189.164062 226.230469 C 190.179688 225.222656 191.199219 224.226562 192.222656 223.226562 C 193.230469 222.238281 194.234375 221.246094 195.242188 220.253906 C 195.867188 219.636719 196.492188 219.019531 197.121094 218.40625 C 198.652344 216.902344 200.109375 215.375 201.507812 213.75 C 203.238281 211.75 205.078125 209.898438 206.972656 208.054688 L 209.050781 206.011719 C 210.121094 204.957031 211.199219 203.90625 212.277344 202.855469 C 213.328125 201.832031 214.375 200.800781 215.417969 199.765625 L 216.390625 198.832031 C 218.429688 196.804688 219.921875 194.777344 220.929688 192.0625 C 221.167969 190.488281 221.167969 190.488281 221.054688 189.039062 L 221 187.585938 Z M 220.929688 186.515625 "/><path style=" stroke:none;fill-rule:nonzero;fill:#07293a;fill-opacity:1;" d="M 258.238281 245 L 259.75 245.507812 C 259.195312 246.085938 258.640625 246.664062 258.082031 247.238281 L 257.140625 248.214844 C 256.222656 249.035156 256.222656 249.035156 254.707031 249.539062 L 253.699219 251.050781 L 252.691406 251.050781 L 252.328125 251.914062 C 251.546875 253.316406 250.601562 254.28125 249.46875 255.417969 L 248.132812 256.757812 L 246.734375 258.140625 L 245.355469 259.535156 L 244.015625 260.871094 L 242.796875 262.085938 C 241.617188 263.136719 240.445312 263.886719 239.078125 264.664062 C 236.835938 266.617188 234.917969 268.902344 232.984375 271.152344 C 231.234375 273.105469 229.355469 274.929688 227.484375 276.765625 L 225.96875 276.261719 C 228.121094 274.097656 230.273438 271.9375 232.425781 269.777344 C 233.15625 269.042969 233.886719 268.308594 234.617188 267.574219 C 235.671875 266.515625 236.730469 265.453125 237.789062 264.394531 L 238.761719 263.414062 C 240.675781 261.5 242.65625 259.6875 244.703125 257.917969 C 245.945312 256.828125 247.113281 255.671875 248.273438 254.496094 L 249.652344 253.101562 L 251.765625 250.957031 C 252.460938 250.257812 253.15625 249.554688 253.847656 248.855469 L 255.085938 247.601562 C 257.050781 245.722656 257.050781 245.722656 258.238281 245 "/><path style=" stroke:none;fill-rule:nonzero;fill:#08b7db;fill-opacity:1;" d="M 346.976562 280.800781 L 347.984375 280.800781 C 347.875 282.886719 347.285156 284.328125 346.1875 286.0625 C 344.828125 288 343.332031 289.46875 341.507812 290.964844 C 339.839844 292.386719 338.347656 293.976562 336.832031 295.558594 L 335.882812 296.429688 L 334.875 296.429688 L 334.875 295.421875 L 334.046875 295.089844 C 332.445312 294.175781 331.242188 292.941406 329.957031 291.640625 L 329.183594 290.875 C 328.539062 290.226562 327.921875 289.546875 327.3125 288.867188 L 327.3125 287.859375 C 328.222656 288 328.222656 288 329.328125 288.363281 C 330.132812 289.148438 330.132812 289.148438 330.871094 290.09375 C 331.855469 291.34375 332.507812 291.992188 333.867188 292.898438 L 333.867188 293.90625 L 335.882812 293.90625 C 337.179688 292.96875 337.179688 292.96875 338.433594 291.734375 L 339.746094 290.511719 C 340.4375 289.84375 341.113281 289.164062 341.773438 288.464844 L 342.4375 287.859375 L 343.445312 287.859375 L 343.792969 286.597656 C 344.578125 284.496094 345.578125 282.5625 346.976562 280.800781 "/><path style=" stroke:none;fill-rule:nonzero;fill:#fd942e;fill-opacity:1;" d="M 362.605469 226.851562 L 363.613281 226.851562 C 364.261719 232.375 364.761719 237.863281 364.910156 243.429688 C 364.996094 245.972656 365.265625 248.148438 366.132812 250.546875 C 367.132812 251.757812 367.132812 251.757812 368.152344 252.566406 L 367.644531 253.574219 C 367.070312 253.066406 366.503906 252.550781 365.945312 252.027344 L 364.988281 251.160156 C 363.867188 249.722656 363.460938 248.273438 363.109375 246.515625 C 362.957031 244.964844 362.921875 243.421875 362.898438 241.867188 L 362.871094 240.5625 C 362.839844 239.195312 362.816406 237.828125 362.792969 236.460938 C 362.773438 235.53125 362.753906 234.601562 362.734375 233.667969 C 362.6875 231.394531 362.644531 229.125 362.605469 226.851562 "/><path style=" stroke:none;fill-rule:nonzero;fill:#007a7e;fill-opacity:1;" d="M 309.160156 320.628906 L 310.167969 321.132812 C 309.410156 322.921875 308.371094 324.042969 306.988281 325.386719 C 306.605469 325.761719 306.222656 326.136719 305.828125 326.519531 L 304.625 327.6875 L 303.402344 328.917969 C 301.75 330.558594 300.027344 332.121094 298.300781 333.6875 C 296.667969 335.171875 295.078125 336.703125 293.53125 338.277344 L 292.019531 337.773438 Z M 309.160156 320.628906 "/><g clip-rule="nonzero" clip-path="url(#1cbd9abf66)"><path style=" stroke:none;fill-rule:nonzero;fill:#060610;fill-opacity:1;" d="M 309.664062 272.226562 C 311.191406 272.910156 312.230469 273.667969 313.390625 274.863281 L 314.351562 275.839844 L 315.335938 276.859375 C 317.226562 278.800781 319.105469 280.707031 321.164062 282.46875 C 323.832031 284.765625 326.285156 287.28125 328.761719 289.78125 L 330.210938 291.238281 C 331.429688 292.460938 332.648438 293.6875 333.867188 294.917969 L 334.875 295.925781 L 332.859375 295.925781 C 331.960938 295.210938 331.960938 295.210938 331.054688 294.210938 L 330.042969 293.105469 L 328.980469 291.921875 C 328.253906 291.132812 327.527344 290.339844 326.800781 289.550781 L 325.746094 288.394531 C 323.121094 285.539062 320.335938 282.84375 317.394531 280.3125 C 315.8125 278.925781 314.242188 277.523438 312.691406 276.105469 L 311.789062 275.296875 C 311.0625 274.632812 310.359375 273.9375 309.664062 273.234375 Z M 623.269531 407.351562 L 624.277344 407.855469 C 624.246094 409.523438 624.246094 409.523438 623.773438 411.382812 C 622.292969 412.109375 622.292969 412.109375 621.324219 412.425781 C 619.957031 413.019531 619.011719 413.851562 617.878906 414.816406 C 614.828125 417.351562 611.105469 419.746094 607.132812 420.457031 C 606.421875 420.492188 605.707031 420.503906 604.992188 420.492188 L 603.101562 420.457031 C 604.675781 419.609375 606.242188 419.082031 607.953125 418.566406 C 613.277344 416.804688 617.316406 413.839844 621.25 409.871094 C 621.9375 409.042969 622.609375 408.203125 623.269531 407.351562 "/></g><path style=" stroke:none;fill-rule:nonzero;fill:#060610;fill-opacity:1;" d="M 270.667969 233.644531 C 271.851562 233.910156 271.851562 233.910156 272.757812 234.679688 L 273.519531 235.675781 L 274.304688 236.667969 L 274.875 237.4375 C 273.78125 237.183594 272.859375 236.933594 271.851562 236.429688 L 271.851562 235.421875 C 270.671875 235.523438 270.671875 235.523438 269.328125 235.925781 C 268.167969 236.8125 268.167969 236.8125 267.097656 237.960938 L 265.882812 239.195312 L 264.636719 240.496094 L 263.359375 241.800781 C 262.320312 242.863281 261.285156 243.929688 260.253906 245 L 258.742188 244.496094 C 261.183594 241.65625 263.714844 238.941406 266.429688 236.367188 L 267.1875 235.625 C 268.320312 234.574219 269.132812 233.949219 270.667969 233.644531 "/><path style=" stroke:none;fill-rule:nonzero;fill:#0b3164;fill-opacity:1;" d="M 396.386719 371.550781 L 397.394531 371.550781 C 397.140625 373.4375 396.953125 374.484375 395.878906 376.089844 C 394.402344 376.273438 394.402344 376.273438 392.480469 376.261719 L 391.421875 376.261719 C 390.265625 376.261719 389.109375 376.25 387.953125 376.238281 C 387.148438 376.234375 386.347656 376.234375 385.546875 376.230469 C 383.4375 376.226562 381.328125 376.210938 379.21875 376.195312 C 377.066406 376.179688 374.910156 376.171875 372.757812 376.164062 C 368.535156 376.148438 364.308594 376.121094 360.082031 376.089844 L 360.082031 375.585938 L 361.292969 375.574219 C 365.054688 375.535156 368.8125 375.492188 372.574219 375.441406 C 374.507812 375.414062 376.441406 375.394531 378.375 375.375 C 380.242188 375.355469 382.109375 375.332031 383.976562 375.304688 C 384.6875 375.296875 385.398438 375.289062 386.109375 375.28125 C 387.109375 375.273438 388.105469 375.257812 389.101562 375.242188 L 390.824219 375.222656 C 392.375 375.078125 393.476562 374.75 394.871094 374.074219 C 395.789062 373.371094 395.789062 373.371094 396.386719 372.5625 Z M 396.386719 371.550781 "/><path style=" stroke:none;fill-rule:nonzero;fill:#fd9520;fill-opacity:1;" d="M 369.664062 228.867188 C 372.40625 231.15625 374.957031 233.582031 377.476562 236.117188 L 378.578125 237.210938 C 380.621094 239.25 382.582031 241.363281 384.46875 243.546875 C 385.710938 244.984375 387 246.378906 388.285156 247.773438 L 389.039062 248.59375 C 389.640625 249.246094 390.238281 249.898438 390.839844 250.546875 L 389.328125 251.050781 L 388.679688 250.292969 C 387.203125 248.585938 385.722656 246.917969 384.09375 245.347656 C 382.699219 243.980469 381.492188 242.535156 380.28125 241 C 377.847656 237.953125 375.101562 235.257812 372.300781 232.550781 L 371.269531 231.542969 L 370.332031 230.644531 L 369.664062 229.875 Z M 369.664062 228.867188 "/><path style=" stroke:none;fill-rule:nonzero;fill:#fd7c03;fill-opacity:1;" d="M 400.921875 291.890625 L 401.929688 291.890625 C 401.121094 293.898438 399.722656 295.253906 398.210938 296.75 L 397.410156 297.558594 C 396.851562 298.117188 396.292969 298.671875 395.730469 299.230469 C 394.871094 300.085938 394.015625 300.945312 393.164062 301.804688 L 391.53125 303.433594 L 390.753906 304.214844 C 390.128906 304.832031 389.476562 305.421875 388.820312 306.007812 L 387.8125 306.007812 C 387.875 305.15625 387.875 305.15625 388.316406 303.992188 C 389.042969 303.363281 389.773438 302.742188 390.53125 302.152344 C 391.816406 301.074219 392.792969 299.734375 393.863281 298.445312 C 394.699219 297.765625 395.539062 297.09375 396.386719 296.429688 L 397.394531 294.917969 C 397.964844 294.363281 398.554688 293.828125 399.15625 293.308594 L 400.085938 292.5 Z M 400.921875 291.890625 "/><path style=" stroke:none;fill-rule:nonzero;fill:#0b1a5c;fill-opacity:1;" d="M 220.929688 186.515625 C 221.667969 187.144531 221.667969 187.144531 222.441406 188.027344 C 222.851562 189.582031 222.734375 190.996094 222.441406 192.566406 C 220.375 197.375 216.636719 200.515625 212.757812 203.835938 C 211.648438 204.855469 210.765625 206.007812 209.835938 207.1875 L 208.828125 207.1875 C 209.5625 205.476562 210.503906 204.410156 211.847656 203.128906 L 213.050781 201.964844 C 213.886719 201.167969 214.71875 200.371094 215.558594 199.578125 C 217.890625 197.308594 219.917969 195.214844 220.929688 192.0625 C 221.167969 190.488281 221.167969 190.488281 221.054688 189.039062 L 221 187.585938 Z M 220.929688 186.515625 "/><path style=" stroke:none;fill-rule:nonzero;fill:#060712;fill-opacity:1;" d="M 347.480469 282.816406 L 347.984375 282.816406 L 347.984375 285.839844 L 346.46875 285.839844 L 346.722656 287.101562 L 346.46875 288.867188 C 344.878906 290.867188 343.046875 292.492188 340.925781 293.90625 C 339.820312 293.71875 339.820312 293.71875 338.90625 293.402344 C 339.378906 292.847656 339.851562 292.289062 340.324219 291.734375 L 341.125 290.792969 C 342.605469 289.109375 342.605469 289.109375 343.445312 288.363281 L 344.453125 288.363281 L 344.832031 287.574219 C 345.660156 285.957031 346.570312 284.390625 347.480469 282.816406 "/><path style=" stroke:none;fill-rule:nonzero;fill:#06279c;fill-opacity:1;" d="M 164.964844 251.554688 L 164.964844 253.070312 C 164.207031 253.957031 164.207031 253.957031 163.167969 254.929688 C 161.820312 256.195312 160.542969 257.535156 159.339844 258.941406 C 157.144531 261.472656 154.773438 263.820312 152.390625 266.175781 C 151.949219 266.617188 151.507812 267.054688 151.054688 267.507812 C 149.976562 268.578125 148.898438 269.648438 147.820312 270.714844 L 147.820312 269.203125 C 148.695312 268.230469 149.609375 267.296875 150.5625 266.398438 C 152.445312 264.703125 152.445312 264.703125 153.871094 262.648438 L 154.878906 262.648438 L 155.382812 261.136719 C 156.203125 260.273438 157.042969 259.433594 157.90625 258.613281 C 158.503906 258.019531 159.101562 257.421875 159.695312 256.824219 Z M 164.964844 251.554688 "/><path style=" stroke:none;fill-rule:nonzero;fill:#0c2b4b;fill-opacity:1;" d="M 370.167969 349.367188 C 372.15625 349.355469 374.148438 349.347656 376.136719 349.339844 C 377.140625 349.335938 378.144531 349.332031 379.148438 349.324219 C 382.742188 349.316406 386.265625 349.40625 389.832031 349.871094 L 389.832031 350.375 C 387.644531 350.546875 385.460938 350.714844 383.277344 350.882812 L 381.410156 351.027344 C 379.679688 351.15625 377.949219 351.273438 376.21875 351.386719 L 374.945312 351.488281 C 373.886719 351.542969 373.886719 351.542969 372.183594 351.386719 C 371.070312 350.367188 371.070312 350.367188 370.167969 349.367188 "/><path style=" stroke:none;fill-rule:nonzero;fill:#09172a;fill-opacity:1;" d="M 224.457031 277.269531 L 225.96875 277.773438 L 225.464844 278.78125 L 224.3125 279.46875 C 220.878906 281.542969 218.21875 284.964844 215.636719 287.996094 C 214.914062 288.828125 214.15625 289.609375 213.367188 290.378906 L 211.851562 289.875 Z M 224.457031 277.269531 "/><path style=" stroke:none;fill-rule:nonzero;fill:#041d5f;fill-opacity:1;" d="M 221.433594 357.433594 L 222.441406 358.445312 C 222.757812 360.734375 222.628906 362.890625 221.9375 365.09375 C 220.503906 367.109375 219.023438 368.753906 216.894531 370.039062 C 215.199219 370.449219 213.59375 370.570312 211.851562 370.542969 L 211.851562 370.039062 L 212.867188 369.78125 C 214.832031 369.242188 216.582031 368.710938 218.34375 367.675781 C 219.808594 366.082031 220.789062 364.554688 221.433594 362.476562 C 221.585938 360.78125 221.558594 359.132812 221.433594 357.433594 "/><path style=" stroke:none;fill-rule:nonzero;fill:#0b1a5c;fill-opacity:1;" d="M 351.007812 342.8125 L 352.015625 343.316406 C 351.160156 344.289062 350.296875 345.253906 349.433594 346.21875 L 348.707031 347.039062 C 347.113281 348.808594 345.527344 350.183594 343.445312 351.386719 C 341.996094 351.511719 341.996094 351.511719 340.925781 351.386719 C 341.910156 350.730469 342.894531 350.078125 343.886719 349.429688 C 346.714844 347.507812 348.855469 345.449219 351.007812 342.8125 "/><path style=" stroke:none;fill-rule:nonzero;fill:#14d5e9;fill-opacity:1;" d="M 346.976562 280.800781 L 347.984375 280.800781 C 347.902344 282.40625 347.589844 283.628906 346.808594 285.035156 C 345.316406 287.335938 345.316406 287.335938 344.453125 288.363281 L 343.445312 288.363281 C 343.792969 286.519531 344.582031 285.074219 345.492188 283.445312 L 346.332031 281.941406 Z M 346.976562 280.800781 "/><path style=" stroke:none;fill-rule:nonzero;fill:#69a3b2;fill-opacity:1;" d="M 208.828125 315.589844 C 210.824219 316.433594 212.277344 317.671875 213.871094 319.117188 L 213.871094 320.125 L 214.878906 320.125 C 215.601562 320.878906 215.601562 320.878906 216.390625 321.859375 C 217.472656 323.226562 217.472656 323.226562 218.910156 324.160156 L 218.910156 325.167969 C 217.277344 324.449219 216.1875 323.578125 214.933594 322.3125 L 213.847656 321.226562 L 212.734375 320.09375 L 211.597656 318.953125 C 209.570312 316.914062 209.570312 316.914062 208.828125 316.09375 Z M 208.828125 315.589844 "/><path style=" stroke:none;fill-rule:nonzero;fill:#040707;fill-opacity:1;" d="M 325.800781 287.859375 C 327.953125 288.691406 329.328125 290.265625 330.902344 291.890625 L 331.726562 292.726562 C 332.441406 293.453125 333.152344 294.183594 333.867188 294.917969 L 334.875 295.925781 L 332.859375 295.925781 C 331.980469 295.238281 331.980469 295.238281 331.117188 294.289062 L 330.171875 293.261719 L 329.203125 292.175781 L 328.210938 291.09375 C 326.507812 289.222656 326.507812 289.222656 325.800781 288.363281 Z M 325.800781 287.859375 "/><path style=" stroke:none;fill-rule:nonzero;fill:#7ba9b2;fill-opacity:1;" d="M 250.171875 355.417969 C 252.109375 356.210938 253.296875 357.453125 254.742188 358.949219 C 256.046875 360.300781 257.175781 361.433594 258.742188 362.476562 L 258.742188 363.484375 C 257.273438 362.820312 256.230469 362.105469 255.09375 360.960938 L 254.21875 360.082031 L 253.320312 359.167969 L 252.402344 358.246094 C 251.648438 357.480469 250.90625 356.707031 250.171875 355.921875 Z M 250.171875 355.417969 "/><path style=" stroke:none;fill-rule:nonzero;fill:#061926;fill-opacity:1;" d="M 258.238281 245 L 259.75 245.507812 C 256.765625 248.808594 256.765625 248.808594 254.488281 249.761719 L 253.195312 250.042969 C 256.59375 245.910156 256.59375 245.910156 258.238281 245 "/><path style=" stroke:none;fill-rule:nonzero;fill:#332f40;fill-opacity:1;" d="M 396.386719 371.550781 L 397.394531 371.550781 C 397.140625 373.4375 396.953125 374.484375 395.878906 376.089844 L 392.351562 375.585938 L 393.234375 375.207031 C 394.535156 374.484375 395.40625 373.679688 396.386719 372.5625 Z M 396.386719 371.550781 "/><path style=" stroke:none;fill-rule:nonzero;fill:#060e19;fill-opacity:1;" d="M 211.347656 290.378906 L 212.355469 291.386719 L 211.324219 292.199219 L 209.960938 293.277344 L 208.613281 294.339844 C 207.4375 295.320312 206.359375 296.335938 205.296875 297.4375 L 204.289062 296.933594 C 205.085938 296.121094 205.886719 295.3125 206.683594 294.507812 L 208.03125 293.140625 C 209.097656 292.117188 210.144531 291.226562 211.347656 290.378906 "/><path style=" stroke:none;fill-rule:nonzero;fill:#09309f;fill-opacity:1;" d="M 164.964844 251.554688 L 164.964844 253.070312 C 164.132812 254.027344 164.132812 254.027344 163.042969 255.054688 C 161.957031 256.082031 160.984375 257.027344 160.105469 258.238281 L 159.417969 259.117188 L 158.410156 259.117188 C 159.222656 257.066406 160.695312 255.707031 162.253906 254.203125 L 163.042969 253.429688 C 163.679688 252.804688 164.320312 252.179688 164.964844 251.554688 "/><path style=" stroke:none;fill-rule:nonzero;fill:#f5a226;fill-opacity:1;" d="M 203.28125 364.492188 C 204.597656 364.703125 205.304688 365.003906 206.378906 365.820312 L 207.441406 366.792969 L 208.519531 367.773438 L 209.332031 368.527344 L 208.828125 369.535156 C 208.183594 369.078125 207.542969 368.613281 206.90625 368.148438 C 206.546875 367.890625 206.191406 367.636719 205.824219 367.371094 C 204.777344 366.5 204.050781 365.609375 203.28125 364.492188 "/><path style=" stroke:none;fill-rule:nonzero;fill:#29212d;fill-opacity:1;" d="M 347.480469 282.816406 L 347.984375 282.816406 L 347.984375 285.839844 L 346.46875 285.839844 L 346.566406 287.289062 L 346.46875 288.867188 L 344.957031 289.875 L 345.460938 288.363281 L 344.453125 287.355469 C 344.945312 286.597656 345.4375 285.839844 345.933594 285.085938 L 346.769531 283.808594 Z M 347.480469 282.816406 "/><path style=" stroke:none;fill-rule:nonzero;fill:#031462;fill-opacity:1;" d="M 145.804688 271.21875 L 146.8125 271.722656 L 145.617188 273.015625 C 144.207031 274.6875 143.75 276.160156 143.285156 278.277344 L 142.78125 276.765625 L 141.769531 276.261719 C 142.972656 274.375 144.164062 272.742188 145.804688 271.21875 "/><path style=" stroke:none;fill-rule:nonzero;fill:#224788;fill-opacity:1;" d="M 368.65625 394.242188 C 369.03125 395.125 369.03125 395.125 369.160156 396.257812 C 368.402344 397.359375 368.402344 397.359375 367.140625 398.273438 C 365.316406 398.714844 365.316406 398.714844 363.613281 398.777344 L 362.605469 397.769531 L 363.542969 397.636719 C 364.792969 397.421875 365.945312 397.183594 367.140625 396.761719 C 368.210938 395.53125 368.210938 395.53125 368.65625 394.242188 "/><path style=" stroke:none;fill-rule:nonzero;fill:#0b2e9f;fill-opacity:1;" d="M 411.007812 283.320312 L 411.007812 284.832031 C 410.257812 285.933594 409.371094 286.859375 408.484375 287.859375 L 406.972656 287.355469 Z M 411.007812 283.320312 "/><path style=" stroke:none;fill-rule:nonzero;fill:#282b38;fill-opacity:1;" d="M 410.503906 346.34375 L 411.007812 346.34375 C 411.070312 347.539062 411.070312 347.539062 411.007812 348.863281 L 409.996094 349.871094 C 408.925781 349.683594 408.925781 349.683594 407.980469 349.367188 C 408.675781 348.359375 408.675781 348.359375 409.492188 347.351562 L 410.503906 347.351562 Z M 410.503906 346.34375 "/><path style=" stroke:none;fill-rule:nonzero;fill:#fd7c03;fill-opacity:1;" d="M 195.71875 218.28125 L 196.726562 218.28125 C 196.1875 219.585938 195.753906 220.269531 194.648438 221.179688 L 193.703125 221.808594 L 193.703125 220.296875 C 194.648438 219.195312 194.648438 219.195312 195.71875 218.28125 M 199.25 214.75 L 200.257812 214.75 C 199.714844 216.054688 199.28125 216.738281 198.175781 217.648438 L 197.230469 218.28125 L 197.230469 216.765625 C 198.175781 215.664062 198.175781 215.664062 199.25 214.75 "/><g style="fill:#f06b07;fill-opacity:1;"><g transform="translate(456.431655, 273.203391)"><path style="stroke:none" d="M 86.859375 0 L 78.328125 -28.015625 L 35.421875 -28.015625 L 26.890625 0 L 0 0 L 41.546875 -118.1875 L 72.046875 -118.1875 L 113.75 0 Z M 72.375 -48.953125 C 64.488281 -74.335938 60.046875 -88.691406 59.046875 -92.015625 C 58.054688 -95.347656 57.347656 -97.976562 56.921875 -99.90625 C 55.148438 -93.039062 50.078125 -76.054688 41.703125 -48.953125 Z M 72.375 -48.953125 "/></g></g><g style="fill:#f06b07;fill-opacity:1;"><g transform="translate(570.176017, 273.203391)"><path style="stroke:none" d="M 31.3125 -45.96875 L 2.328125 -90 L 30.1875 -90 L 47.65625 -61.34375 L 65.296875 -90 L 93.140625 -90 L 63.84375 -45.96875 L 94.515625 0 L 66.578125 0 L 47.65625 -30.828125 L 28.65625 0 L 0.8125 0 Z M 31.3125 -45.96875 "/></g></g><g style="fill:#f06b07;fill-opacity:1;"><g transform="translate(665.486228, 273.203391)"><path style="stroke:none" d="M 50.15625 -74.21875 C 44.945312 -74.21875 40.863281 -72.566406 37.90625 -69.265625 C 34.957031 -65.972656 33.269531 -61.296875 32.84375 -55.234375 L 67.296875 -55.234375 C 67.191406 -61.296875 65.609375 -65.972656 62.546875 -69.265625 C 59.492188 -72.566406 55.363281 -74.21875 50.15625 -74.21875 Z M 53.609375 1.609375 C 39.117188 1.609375 27.796875 -2.382812 19.640625 -10.375 C 11.484375 -18.375 7.40625 -29.703125 7.40625 -44.359375 C 7.40625 -59.441406 11.175781 -71.101562 18.71875 -79.34375 C 26.257812 -87.582031 36.6875 -91.703125 50 -91.703125 C 62.71875 -91.703125 72.617188 -88.078125 79.703125 -80.828125 C 86.785156 -73.578125 90.328125 -63.566406 90.328125 -50.796875 L 90.328125 -38.890625 L 32.28125 -38.890625 C 32.550781 -31.910156 34.617188 -26.460938 38.484375 -22.546875 C 42.347656 -18.628906 47.769531 -16.671875 54.75 -16.671875 C 60.164062 -16.671875 65.285156 -17.234375 70.109375 -18.359375 C 74.941406 -19.484375 79.988281 -21.28125 85.25 -23.75 L 85.25 -4.75 C 80.957031 -2.601562 76.367188 -1.007812 71.484375 0.03125 C 66.597656 1.082031 60.640625 1.609375 53.609375 1.609375 Z M 53.609375 1.609375 "/></g></g><g style="fill:#f06b07;fill-opacity:1;"><g transform="translate(762.889398, 273.203391)"><path style="stroke:none" d="M 37.4375 0 L 12.875 0 L 12.875 -125.265625 L 37.4375 -125.265625 Z M 37.4375 0 "/></g></g><g style="fill:#2191aa;fill-opacity:1;"><g transform="translate(456.441586, 423.644262)"><path style="stroke:none" d="M 81.953125 -117.703125 L 107.15625 -117.703125 L 67.140625 0 L 39.9375 0 L 0 -117.703125 L 25.203125 -117.703125 L 47.34375 -47.65625 C 48.570312 -43.519531 49.84375 -38.703125 51.15625 -33.203125 C 52.476562 -27.703125 53.296875 -23.878906 53.609375 -21.734375 C 54.203125 -26.671875 56.21875 -35.3125 59.65625 -47.65625 Z M 81.953125 -117.703125 "/></g></g><g style="fill:#2191aa;fill-opacity:1;"><g transform="translate(563.589167, 423.644262)"><path style="stroke:none" d="M 70.046875 0 L 65.296875 -12.234375 L 64.640625 -12.234375 C 60.515625 -7.023438 56.265625 -3.414062 51.890625 -1.40625 C 47.515625 0.601562 41.8125 1.609375 34.78125 1.609375 C 26.132812 1.609375 19.328125 -0.859375 14.359375 -5.796875 C 9.398438 -10.734375 6.921875 -17.765625 6.921875 -26.890625 C 6.921875 -36.441406 10.257812 -43.484375 16.9375 -48.015625 C 23.625 -52.554688 33.703125 -55.066406 47.171875 -55.546875 L 62.796875 -56.03125 L 62.796875 -59.96875 C 62.796875 -69.09375 58.125 -73.65625 48.78125 -73.65625 C 41.59375 -73.65625 33.140625 -71.484375 23.421875 -67.140625 L 15.296875 -83.71875 C 25.648438 -89.144531 37.132812 -91.859375 49.75 -91.859375 C 61.820312 -91.859375 71.078125 -89.226562 77.515625 -83.96875 C 83.960938 -78.707031 87.1875 -70.707031 87.1875 -59.96875 L 87.1875 0 Z M 62.796875 -41.703125 L 53.296875 -41.375 C 46.160156 -41.164062 40.847656 -39.878906 37.359375 -37.515625 C 33.867188 -35.148438 32.125 -31.554688 32.125 -26.734375 C 32.125 -19.804688 36.09375 -16.34375 44.03125 -16.34375 C 49.71875 -16.34375 54.265625 -17.976562 57.671875 -21.25 C 61.085938 -24.53125 62.796875 -28.878906 62.796875 -34.296875 Z M 62.796875 -41.703125 "/></g></g><g style="fill:#2191aa;fill-opacity:1;"><g transform="translate(663.169602, 423.644262)"><path style="stroke:none" d="M 37.4375 0 L 12.875 0 L 12.875 -125.265625 L 37.4375 -125.265625 Z M 37.4375 0 "/></g></g><g style="fill:#2191aa;fill-opacity:1;"><g transform="translate(713.483079, 423.644262)"><path style="stroke:none" d="M 37.4375 0 L 12.875 0 L 12.875 -125.265625 L 37.4375 -125.265625 Z M 37.4375 0 "/></g></g><g style="fill:#2191aa;fill-opacity:1;"><g transform="translate(763.796556, 423.644262)"><path style="stroke:none" d="M 50.15625 -74.21875 C 44.945312 -74.21875 40.863281 -72.566406 37.90625 -69.265625 C 34.957031 -65.972656 33.269531 -61.296875 32.84375 -55.234375 L 67.296875 -55.234375 C 67.191406 -61.296875 65.609375 -65.972656 62.546875 -69.265625 C 59.492188 -72.566406 55.363281 -74.21875 50.15625 -74.21875 Z M 53.609375 1.609375 C 39.117188 1.609375 27.796875 -2.382812 19.640625 -10.375 C 11.484375 -18.375 7.40625 -29.703125 7.40625 -44.359375 C 7.40625 -59.441406 11.175781 -71.101562 18.71875 -79.34375 C 26.257812 -87.582031 36.6875 -91.703125 50 -91.703125 C 62.71875 -91.703125 72.617188 -88.078125 79.703125 -80.828125 C 86.785156 -73.578125 90.328125 -63.566406 90.328125 -50.796875 L 90.328125 -38.890625 L 32.28125 -38.890625 C 32.550781 -31.910156 34.617188 -26.460938 38.484375 -22.546875 C 42.347656 -18.628906 47.769531 -16.671875 54.75 -16.671875 C 60.164062 -16.671875 65.285156 -17.234375 70.109375 -18.359375 C 74.941406 -19.484375 79.988281 -21.28125 85.25 -23.75 L 85.25 -4.75 C 80.957031 -2.601562 76.367188 -1.007812 71.484375 0.03125 C 66.597656 1.082031 60.640625 1.609375 53.609375 1.609375 Z M 53.609375 1.609375 "/></g></g></g></svg>